HIERARCHY
ROOT Hips
{
  OFFSET 0.000000 0.000000 0.000000
  CHANNELS 6 Xposition Yposition Zposition Xrotation Yrotation Zrotation
  JOINT Spine
  {
    OFFSET 0.211591 24.227834 -3.764787
    CHANNELS 3 Xrotation Yrotation Zrotation
    JOINT Chest
    {
      OFFSET 0.211591 24.227834 -3.764787
      CHANNELS 3 Xrotation Yrotation Zrotation
      JOINT Neck
      {
        OFFSET -1.100772 8.441563 -3.430650
        CHANNELS 3 Xrotation Yrotation Zrotation
        JOINT Head
        {
          OFFSET -1.192129 7.757112 -7.601908
          CHANNELS 3 Xrotation Yrotation Zrotation
          End Site
          {
            OFFSET -0.357639 2.327134 -2.280572
          }
        }
      }
      JOINT LeftShoulder
      {
        OFFSET 17.192089 0.613400 -1.554494
        CHANNELS 3 Xrotation Yrotation Zrotation
        JOINT LeftArm
        {
          OFFSET 6.822346 -20.001605 -11.416031
          CHANNELS 3 Xrotation Yrotation Zrotation
          JOINT LeftForeArm
          {
            OFFSET -10.811707 -3.287858 -20.004664
            CHANNELS 3 Xrotation Yrotation Zrotation
            JOINT LeftHand
            {
              OFFSET -2.972239 -0.032078 -2.791873
              CHANNELS 3 Xrotation Yrotation Zrotation
              End Site
              {
                OFFSET -0.891672 -0.009623 -0.837562
              }
            }
          }
        }
      }
      JOINT RightShoulder
      {
        OFFSET -17.192089 -0.613400 1.554494
        CHANNELS 3 Xrotation Yrotation Zrotation
        JOINT RightArm
        {
          OFFSET -7.078612 -20.128798 -9.457155
          CHANNELS 3 Xrotation Yrotation Zrotation
          JOINT RightForeArm
          {
            OFFSET 6.068787 -1.370308 -22.325569
            CHANNELS 3 Xrotation Yrotation Zrotation
            JOINT RightHand
            {
              OFFSET 2.627653 0.279547 -3.282648
              CHANNELS 3 Xrotation Yrotation Zrotation
              End Site
              {
                OFFSET 0.788296 0.083864 -0.984794
              }
            }
          }
        }
      }
    }
  }
  JOINT LeftUpLeg
  {
    OFFSET 11.367086 0.027478 -2.758015
    CHANNELS 3 Xrotation Yrotation Zrotation
    JOINT LeftLeg
    {
      OFFSET 2.451199 -39.057141 -4.768226
      CHANNELS 3 Xrotation Yrotation Zrotation
      JOINT LeftFoot
      {
        OFFSET 10.058204 -39.973237 0.774249
        CHANNELS 3 Xrotation Yrotation Zrotation
        End Site
        {
          OFFSET 3.017461 -11.991971 0.232275
        }
      }
    }
  }
  JOINT RightUpLeg
  {
    OFFSET -11.367086 -0.027478 2.758015
    CHANNELS 3 Xrotation Yrotation Zrotation
    JOINT RightLeg
    {
      OFFSET -4.668361 -37.080477 -5.635053
      CHANNELS 3 Xrotation Yrotation Zrotation
      JOINT RightFoot
      {
        OFFSET -2.542494 -41.040053 5.594103
        CHANNELS 3 Xrotation Yrotation Zrotation
        End Site
        {
          OFFSET -0.762748 -12.312016 1.678231
        }
      }
    }
  }
}
MOTION
Frames: 14
Frame Time: 0.083333
-1.631443 56.354716 2.098451 -1.205293 -0.044639 -0.235813 0.000000 0.000000 0.000000 -0.037129 -1.372897 -2.736094 -0.665755 -2.087056 0.090699 5.000000 0.000000 0.000000 28.035064 -13.393499 33.973809 3.003749 11.014792 -31.878515 0.000000 0.000000 0.000000 0.000000 0.000000 0.000000 20.138965 -6.303412 5.991581 -9.976293 5.400389 0.364517 -27.516079 -34.564070 -14.357932 0.000000 0.000000 0.000000 25.928297 0.619121 10.543535 -22.583299 4.611451 3.343007 0.000000 0.000000 0.000000 -15.424593 1.818950 -5.331063 -4.347646 -1.685161 7.641073 0.000000 0.000000 0.000000
-1.727523 55.962456 2.392221 -2.439222 -0.519042 -3.002252 0.000000 0.000000 0.000000 2.692753 -1.076349 -1.533340 -0.812422 -3.263291 -0.096242 5.000000 0.000000 0.000000 25.186000 -8.450737 26.863092 6.390258 8.122003 -22.681086 0.000000 0.000000 0.000000 0.000000 0.000000 0.000000 19.878800 -10.702426 13.237217 -12.919034 9.597742 -4.749298 0.000000 0.000000 0.000000 0.000000 0.000000 0.000000 31.698160 1.612121 11.763805 -28.340105 5.454609 3.525966 0.000000 0.000000 0.000000 -17.373890 1.702567 -3.603060 -8.319830 -3.318520 3.322121 0.000000 0.000000 0.000000
-2.003056 56.420946 2.008821 -2.923228 -0.780750 -4.435576 0.000000 0.000000 0.000000 4.319961 -0.698260 -0.978544 -0.479859 -4.160757 -0.702314 5.000000 0.000000 0.000000 5.179424 0.485823 10.244972 28.980305 -5.797044 -9.601912 0.000000 0.000000 0.000000 0.000000 0.000000 0.000000 12.858168 -9.512030 16.082871 -2.460463 7.899153 -10.401202 0.000000 0.000000 0.000000 0.000000 0.000000 0.000000 25.630116 1.399641 11.176726 -25.541408 4.310794 5.847871 0.000000 0.000000 0.000000 -16.923837 1.631805 -5.333530 -9.733100 -3.064321 6.221117 0.000000 0.000000 0.000000
-2.486479 57.067245 1.462343 -1.789860 -0.713338 -4.232385 0.000000 0.000000 0.000000 2.180951 -1.000883 -0.544667 0.259002 -4.295316 -1.472548 5.000000 0.000000 0.000000 1.473104 6.662635 -4.498048 23.869752 -6.255013 6.440189 0.000000 0.000000 0.000000 0.000000 0.000000 0.000000 8.063065 -4.495643 8.253438 0.480712 4.041914 -4.473094 0.000000 0.000000 0.000000 0.000000 0.000000 0.000000 12.893795 0.601811 10.070740 -18.431187 2.534168 7.449185 0.000000 0.000000 0.000000 -18.951318 1.568744 -8.985094 -6.088515 -1.821819 12.558579 0.000000 0.000000 0.000000
-3.128014 57.466683 0.920861 -0.048651 -0.576044 -3.608218 0.000000 0.000000 0.000000 0.132644 -0.657435 0.494613 0.017836 -2.415745 -0.570555 5.000000 0.000000 0.000000 2.205893 5.744347 -7.251654 18.185249 -4.126408 7.105794 0.000000 0.000000 0.000000 0.000000 0.000000 0.000000 2.051180 0.504232 -1.169504 7.980385 0.650153 2.326551 0.000000 0.000000 0.000000 0.000000 0.000000 0.000000 1.322568 0.169802 5.353193 -10.670394 0.649648 10.401124 0.000000 0.000000 0.000000 -24.349500 1.814106 -9.806477 1.008132 -0.544534 13.010980 0.000000 0.000000 0.000000
-3.738057 57.621877 0.377289 2.971619 -0.317770 -2.073728 0.000000 0.000000 0.000000 -3.098704 0.021743 1.565437 -0.412427 0.308117 0.729902 5.000000 0.000000 0.000000 4.773154 3.103065 -6.692317 19.358515 -2.364067 3.137226 -40.587185 18.094723 14.189882 0.000000 0.000000 0.000000 -2.620533 0.503920 -2.732728 15.228763 0.914730 1.421601 0.000000 0.000000 0.000000 0.000000 0.000000 0.000000 -3.577293 0.547326 -4.150279 -3.448671 -0.381033 19.902668 0.000000 0.000000 0.000000 -29.864997 2.871255 -10.865542 10.100490 0.695236 11.479355 0.000000 0.000000 0.000000
-3.992024 57.692133 0.113674 4.788507 0.086277 1.215588 0.000000 0.000000 0.000000 -4.893440 0.939964 1.125607 0.003775 1.714669 0.438104 5.000000 0.000000 0.000000 11.294259 0.781488 -1.749748 15.923140 -1.640679 -3.797483 -48.203553 49.607702 27.039438 0.000000 0.000000 0.000000 -8.085513 -0.174280 0.743724 18.780367 1.253126 -3.525692 0.000000 0.000000 0.000000 0.000000 0.000000 0.000000 -7.467056 0.584353 -9.623388 1.885783 0.098706 26.443737 0.000000 0.000000 0.000000 -28.539602 4.108829 -12.541445 10.650623 0.505091 10.921282 0.000000 0.000000 0.000000
-3.980247 57.818695 0.031442 5.409916 0.408067 4.264097 0.000000 0.000000 0.000000 -4.937630 1.507312 -0.456598 0.540332 2.561057 0.556066 5.000000 0.000000 0.000000 17.206232 2.670560 -2.407204 9.924676 -2.057182 -3.044890 -45.900889 51.950764 26.531846 0.000000 0.000000 0.000000 -9.468491 -0.337286 1.808489 21.030351 0.832536 -4.909333 0.000000 0.000000 0.000000 0.000000 0.000000 0.000000 -7.142305 0.425739 -8.854792 4.985998 0.586839 26.257821 0.000000 0.000000 0.000000 -29.709473 4.579255 -11.913864 13.544910 0.137039 8.907919 0.000000 0.000000 0.000000
-3.771224 57.835816 0.124549 5.189963 0.478081 4.818761 0.000000 0.000000 0.000000 -4.667908 1.635055 -0.566982 0.861307 2.795676 0.632039 5.000000 0.000000 0.000000 14.702521 2.936518 -1.968748 9.265050 -1.462136 -2.317284 0.000000 0.000000 0.000000 0.000000 0.000000 0.000000 -5.723215 -2.019515 3.944565 17.027519 2.007485 -6.471711 -64.457177 2.869903 -40.762484 0.000000 0.000000 0.000000 -3.226779 -0.381509 -3.244514 6.466942 1.226641 18.319198 0.000000 0.000000 0.000000 -30.597433 4.653554 -9.893314 15.755447 -0.539688 5.917509 0.000000 0.000000 0.000000
-3.290559 57.443046 0.545730 2.869095 0.506147 4.232701 0.000000 0.000000 0.000000 -2.561448 0.895494 -1.246737 0.751562 2.062619 0.578918 5.000000 0.000000 0.000000 7.474890 2.617429 -0.696252 11.358830 -0.319207 -0.793324 0.000000 0.000000 0.000000 0.000000 0.000000 0.000000 -1.780567 -0.178224 2.642249 8.769369 -0.347333 -2.707648 0.000000 0.000000 0.000000 0.000000 0.000000 0.000000 5.066011 -1.142113 5.755104 -1.109454 2.513631 6.679743 0.000000 0.000000 0.000000 -28.264131 3.878100 -7.273076 11.341077 -1.869094 2.346857 0.000000 0.000000 0.000000
-2.641179 56.664085 1.411457 0.878538 0.258366 2.253899 0.000000 0.000000 0.000000 -1.218293 -0.242865 -2.220511 0.245523 0.118108 0.274086 5.000000 0.000000 0.000000 1.082984 7.196061 -3.494891 23.024483 -3.904275 6.756929 0.000000 0.000000 0.000000 0.000000 0.000000 0.000000 5.057909 2.024317 0.479481 -3.145757 -5.448232 3.204310 0.000000 0.000000 0.000000 0.000000 0.000000 0.000000 21.873295 -0.995708 12.548625 -14.203221 5.810222 1.402657 0.000000 0.000000 0.000000 -25.982498 2.632643 -2.160616 3.781988 -4.699742 -4.616060 0.000000 0.000000 0.000000
-2.101609 56.075176 2.073053 -2.414264 -0.305356 -1.900815 0.000000 0.000000 0.000000 1.265387 -1.780971 -2.448001 0.173630 -2.822987 -0.184199 5.000000 0.000000 0.000000 3.488941 11.645293 -2.531416 31.169912 -6.347995 8.590990 0.000000 0.000000 0.000000 0.000000 0.000000 0.000000 16.378068 -13.216985 20.329130 -0.391558 2.396658 -14.993761 106.191825 -55.011292 73.436783 0.000000 0.000000 0.000000 28.177918 0.454433 17.211964 -24.621891 8.245833 -1.328346 0.000000 0.000000 0.000000 -24.012667 1.420129 1.449165 -6.318816 -7.823763 -10.932970 0.000000 0.000000 0.000000
-1.768441 56.110968 2.198723 -1.612820 -0.879995 -5.705674 0.000000 0.000000 0.000000 1.307520 -2.449935 -1.623136 1.183347 -4.340660 -0.405776 5.000000 0.000000 0.000000 5.743585 11.679642 -2.475045 34.456706 -7.410370 7.204411 0.000000 0.000000 0.000000 0.000000 0.000000 0.000000 24.505043 -40.011254 50.534483 22.605930 26.948412 -47.101459 0.000000 0.000000 0.000000 0.000000 0.000000 0.000000 22.503641 2.108934 20.195767 -23.064479 7.424554 -3.006425 0.000000 0.000000 0.000000 -22.436602 -0.000760 4.076703 -11.799158 -8.818572 -12.428900 0.000000 0.000000 0.000000
-1.581300 56.908884 1.570764 1.948344 -1.309518 -9.394745 0.000000 0.000000 0.000000 -1.886602 -1.791758 3.071050 1.471721 -4.592218 -1.470689 5.000000 0.000000 0.000000 5.409329 11.154569 -2.963216 28.470454 -7.963491 7.782147 0.000000 0.000000 0.000000 0.000000 0.000000 0.000000 25.499943 -30.652816 35.734908 15.610417 24.805633 -33.552974 0.000000 0.000000 0.000000 0.000000 0.000000 0.000000 14.239921 1.707503 20.018781 -15.881456 5.140033 -4.020776 0.000000 0.000000 0.000000 -21.192453 -0.089853 2.901031 -5.422163 -6.155792 -6.554272 0.000000 0.000000 0.000000
